  General
      Complete name : Touch.of.Evil.1958.HDTVRip.H264.AAC.Gopo.mp4
      Format : MPEG-4
      Format profile : Base Media
      Codec ID : isom
      File size : 1.78 GiB
      Duration : 1h 46mn
      Overall bit rate : 2 403 Kbps
      Encoded date : UTC 2010-02-24 20:15:23
      Tagged date : UTC 2010-02-24 20:15:23
   Video #1
      ID : 1
      Format : AVC
      Format/Info : Advanced Video Codec
      Format profile : High@L4.1
      Format settings, CABAC : Yes
      Format settings, ReFrames : 6 frames
      Codec ID : avc1
      Codec ID/Info : Advanced Video Coding
      Duration : 1h 46mn
      Bit rate mode : Variable
      Bit rate : 2 133 Kbps
      Maximum bit rate : 9 545 Kbps
      Width : 1 280 pixels
      Height : 696 pixels
      Display aspect ratio : 16:9
      Frame rate mode : Constant
      Frame rate : 25.000 fps
      Resolution : 24 bits
      Colorimetry : 4:2:0
      Scan type : Progressive
      Bits/(Pixel*Frame) : 0.096
      Stream size : 1.58 GiB (89%)
      Writing library : x264 core 84 r1416 fcf70c2
      Encoding settings : cabac=1 / ref=6 / deblock=1:-3:-1 / analyse=0x3:0x133 / me=umh / subme=7 / psy=1 / psy_rd=1.0:0.1 / mixed_ref=1 / me_range=32 / chroma_me=1 / trellis=2 / 8x8dct=1 / cqm=0 / deadzone=21,11 / fast_pskip=0 / chroma_qp_offset=-3 / threads=2 / sliced_threads=0 / nr=0 / decimate=1 / mbaff=0 / constrained_intra=0 / bframes=6 / b_pyramid=2 / b_adapt=2 / b_bias=0 / direct=1 / wpredb=1 / wpredp=2 / keyint=250 / keyint_min=25 / scenecut=40 / intra_refresh=0 / rc_lookahead=40 / rc=2pass / mbtree=1 / bitrate=2133 / ratetol=1.0 / qcomp=0.60 / qpmin=10 / qpmax=51 / qpstep=4 / cplxblur=20.0 / qblur=0.5 / vbv_maxrate=40000 / vbv_bufsize=40000 / ip_ratio=1.40 / aq=1:1.00
      Encoded date : UTC 2010-02-23 23:12:47
      Tagged date : UTC 2010-02-24 20:19:45
   Audio #2
      ID : 2
      Format : AAC
      Format/Info : Advanced Audio Codec
      Format version : Version 4
      Format profile : LC
      Format settings, SBR : No
      Codec ID : 40
      Duration : 1h 46mn
      Bit rate mode : Variable
      Bit rate : 264.6 Kbps
      Maximum bit rate : 371 Kbps
      Channel(s) : 2 channels
      Channel positions : L R
      Sampling rate : 48.0 KHz
      Resolution : 16 bits
      Stream size : 202 MiB (11%)
      Encoded date : UTC 2010-02-24 20:18:55
      Tagged date : UTC 2010-02-24 20:19:45
	Sample : YES
	Subtitle : English,Romanian

PLOT
An automobile is blown up as it crosses the Mexican border into the United States. Mike Vargas, a high ranking Mexican narcotics official on honeymoon with his bride Susie is drawn into the investigation because a Mexican national has been accused of the crime. The figurative and physical presence of Hank Quinlan as the 330 pound sheriff looms all over. Quinlan is a fanatic where "justice" is concerned, even if obtaining it involves planting evidence. Quinlan's reputation for law and order enables him to bend the law without question until Vargas confronts him. From that point on, it's a battle of wits between the two that, with an accelerating pace, rushes to a climax.
Director: Orson Welles
CASTING 
     
	Charlton Heston	... 	Ramon Miguel 'Mike' Vargas
	Janet Leigh	... 	Susan 'Susie' Vargas
	Orson Welles	... 	Police Captain Hank Quinlan
	Joseph Calleia	... 	Police Sergeant Pete Menzies
	Akim Tamiroff	... 	'Uncle' Joe Grandi
	Joanna Moore	... 	Marcia Linnekar
	Ray Collins	... 	District Attorney Adair
	Dennis Weaver	... 	Mirador Motel Night Manager
	Valentin de Vargas	... 	Pancho - Grandi Hood
	Mort Mills	... 	Al Schwartz - District Attorney's Assistant
	Victor Millan	... 	Manelo Sanchez
	Lalo Rios	... 	Risto - Grandi's Nephew
	Michael Sargent	... 	Pretty Boy
	Phil Harvey	... 	Blaine
	Joi Lansing	... 	Zita

SOURCE: Touch.of.Evil.1958.720p.HDTV.x264-ESiR.mkv

Notes: For best performance I suggest you to use KMPlayer(find it with google) for playback
These movies were made especially for PC and they don't play on a PS3.If you want to re-encode for PS3 or test for other devices be my guests.